<svg height="512" viewBox="0 0 58 59" width="512" xmlns="http://www.w3.org/2000/svg"><g id="Page-1" fill="none" fill-rule="evenodd"><g id="013---Business-Studies"><path id="Path" d="m52 22.4v9.6l-23.96 13h-23.04c-1.65685425 0-3-1.3431458-3-3v-19.6z" fill="#a56a43"/><path id="Path" d="m30.73 26.65 21.66-4.33c.9353078-.1859544 1.609234-1.0063863 1.61-1.96v-12.36c-.0032948-1.10320187-.8967981-1.9967052-2-2h-50c-1.10320187.0032948-1.9967052.89679813-2 2v12.36c.00076604.9536137.67469221 1.7740456 1.61 1.96l21.66 4.33z" fill="#cb8252"/><path id="Path" d="m29.254 30h-4.508c-.501529.0087823-.9370247-.3436615-1.033-.836l-.7-4c-.0446185-.2973281.0450094-.5991254.2446833-.8239033.1996739-.224778.488802-.349356.7893167-.3400967h5.906c.3001705-.0086532.5887371.1161867.7879547.3408856.1992175.2246988.2885924.5261418.2440453.8231144l-.7 4c-.0958449.4915844-.5302201.8438032-1.031.836z" fill="#bdc3c7"/><path id="Path" d="m41 6h-2v-3c0-.55228475-.4477153-1-1-1h-22c-.5522847 0-1 .44771525-1 1v3h-2v-3c0-1.65685425 1.3431458-3 3-3h22c1.6568542 0 3 1.34314575 3 3z" fill="#95a5a5"/><circle id="Oval" cx="43" cy="44" fill="#f0c419" r="15"/><path id="Shape" d="m44 43.1v-5.916c1.1943509.4222546 1.9947486 1.5492146 2 2.816 0 .5522847.4477153 1 1 1s1-.4477153 1-1c-.0029983-2.3751008-1.6735832-4.4215673-4-4.9v-1.1c0-.5522847-.4477153-1-1-1s-1 .4477153-1 1v1.1c-2.330324.4731925-4.0050126 2.5221184-4.0050126 4.9s1.6746886 4.4268075 4.0050126 4.9v5.917c-1.1946951-.4223781-1.9951701-1.5498471-2-2.817 0-.5522847-.4477153-1-1-1s-1 .4477153-1 1c.0029983 2.3751008 1.6735832 4.4215673 4 4.9v1.1c0 .5522847.4477153 1 1 1s1-.4477153 1-1v-1.1c2.330324-.4731925 4.0050126-2.5221184 4.0050126-4.9s-1.6746886-4.4268075-4.0050126-4.9zm-4-3.1c.0052514-1.2667854.8056491-2.3937454 2-2.816v5.632c-1.1943509-.4222546-1.9947486-1.5492146-2-2.816zm4 10.816v-5.632c1.1981296.4174114 2.0009455 1.5472421 2.0009455 2.816s-.8028159 2.3985886-2.0009455 2.816z" fill="#f29c1f" fill-rule="nonzero"/></g></g></svg>